<?xml version="1.0" encoding="UTF-8" standalone="no"?>
<svg
   viewBox="0 0 232 232"
   version="1.1"
   id="svg96"
   sodipodi:docname="kek.svg"
   width="232"
   height="232"
   inkscape:version="1.1.1 (3bf5ae0d25, 2021-09-20)"
   xmlns:inkscape="http://www.inkscape.org/namespaces/inkscape"
   xmlns:sodipodi="http://sodipodi.sourceforge.net/DTD/sodipodi-0.dtd"
   xmlns="http://www.w3.org/2000/svg"
   xmlns:svg="http://www.w3.org/2000/svg"
   xmlns:rdf="http://www.w3.org/1999/02/22-rdf-syntax-ns#"
   xmlns:cc="http://creativecommons.org/ns#"
   xmlns:dc="http://purl.org/dc/elements/1.1/">
  <sodipodi:namedview
     id="namedview98"
     pagecolor="#505050"
     bordercolor="#eeeeee"
     borderopacity="1"
     inkscape:pageshadow="0"
     inkscape:pageopacity="0"
     inkscape:pagecheckerboard="0"
     showgrid="false"
     fit-margin-top="0"
     fit-margin-left="0"
     fit-margin-right="0"
     fit-margin-bottom="0"
     inkscape:zoom="2.0693333"
     inkscape:cx="191.36598"
     inkscape:cy="143.76611"
     inkscape:window-width="1920"
     inkscape:window-height="1016"
     inkscape:window-x="0"
     inkscape:window-y="0"
     inkscape:window-maximized="1"
     inkscape:current-layer="svg96" />
  <defs
     id="defs4">
    <style
       id="style2">.cls-1{fill:#fcf2f0;}.cls-2{fill:none;stroke:#262626;stroke-linecap:round;stroke-linejoin:round;stroke-width:7px;}.cls-3{fill:#262626;}</style>
  </defs>
  <title
     id="title6">rock-paper-scissors-line-icons</title>
  <g
     id="Background"
     transform="translate(-101.54,-223)">
    <rect
       class="cls-1"
       width="1000"
       height="750"
       id="rect8"
       x="0"
       y="0" />
  </g>
  <g
     id="Icons"
     transform="translate(-101.54,-223)">
    <rect
       class="cls-2"
       x="669.96002"
       y="226.5"
       width="225"
       height="225"
       rx="20"
       id="rect11" />
    <g
       id="scissor">
      <line
         class="cls-2"
         x1="784.28003"
         y1="365.17999"
         x2="795.54999"
         y2="378.26999"
         id="line13" />
      <path
         class="cls-2"
         d="M 782.46,327.54 735.08,267 c -8.26,15.17 -6.09,34.59 5.25,47.1 l 27.06,31.45"
         id="path15" />
      <line
         class="cls-2"
         x1="811.90997"
         y1="365.17999"
         x2="798.82001"
         y2="348.45001"
         id="line17" />
      <path
         class="cls-2"
         d="M 754.64,365.18 831.47,267 c 8.26,15.17 6.09,34.59 -5.25,47.1 l -56.85,67.45"
         id="path19" />
      <path
         class="cls-2"
         d="m 784.09,343.91 a 1.64,1.64 0 1 1 -1.63,1.64 1.63,1.63 0 0 1 1.63,-1.64"
         id="path21" />
      <circle
         class="cls-2"
         cx="746.46002"
         cy="388.09"
         r="22.91"
         id="circle23" />
      <circle
         class="cls-2"
         cx="746.46002"
         cy="388.09"
         r="9.8199997"
         id="circle25" />
      <circle
         class="cls-2"
         cx="818.46002"
         cy="388.09"
         r="22.91"
         id="circle27" />
      <circle
         class="cls-2"
         cx="818.46002"
         cy="388.09"
         r="9.8199997"
         id="circle29" />
    </g>
    <rect
       class="cls-2"
       x="387.5"
       y="226.5"
       width="225"
       height="225"
       rx="20"
       id="rect32" />
    <path
       class="cls-2"
       d="m 479.62,270 h -12.56 a 12.53,12.53 0 0 0 -12.54,12.54 v 106.64"
       id="path34" />
    <polyline
       class="cls-2"
       points="536.06 295.1 536.06 289.25 536.06 288.82"
       id="polyline36" />
    <path
       class="cls-2"
       d="m 479.62,270 h 69 a 12.54,12.54 0 0 1 12.54,12.54 v 6.71 h -25.1"
       id="path38" />
    <path
       class="cls-2"
       d="m 548.62,270 a 12.55,12.55 0 0 0 -12.56,12.54 v 6.28"
       id="path40" />
    <path
       class="cls-2"
       d="M 523.52,408 A 12.53,12.53 0 0 1 511,395.46 v -6.28 h -69 a 3.15,3.15 0 0 0 -3.14,3.14 v 3.14 A 12.53,12.53 0 0 0 451.38,408 h 72.14 a 12.53,12.53 0 0 0 12.54,-12.54 V 295.1"
       id="path42" />
    <rect
       class="cls-2"
       x="105.04"
       y="226.5"
       width="225"
       height="225"
       rx="20"
       id="rect44" />
    <path
       class="cls-2"
       d="m 265.22,323.7 v 48 a 39.3,39.3 0 0 1 -39.3,39.3 h -16.75 a 39.3,39.3 0 0 1 -39.3,-39.3 v -47.39"
       id="path46" />
    <path
       class="cls-2"
       d="M 169.87,324.34 V 278.92 A 11.92,11.92 0 0 1 181.79,267 v 0 a 11.92,11.92 0 0 1 11.91,11.92 v 45.42"
       id="path48" />
    <path
       class="cls-2"
       d="M 241.38,324.34 V 278.92 A 11.92,11.92 0 0 1 253.3,267 v 0 a 11.92,11.92 0 0 1 11.92,11.92 v 45.42"
       id="path50" />
    <path
       class="cls-2"
       d="m 193.7,336.58 v -22.22 a 11.92,11.92 0 0 1 11.92,-11.92 v 0 a 11.91,11.91 0 0 1 11.92,11.92 v 6.12"
       id="path52" />
    <path
       class="cls-2"
       d="m 217.54,338.28 v -23.92 a 11.92,11.92 0 0 1 11.92,-11.92 v 0 a 11.91,11.91 0 0 1 11.92,11.92 v 29 a 11.92,11.92 0 0 1 -11.92,11.92 v 0 a 11.81,11.81 0 0 1 -6.66,-2"
       id="path54" />
    <path
       class="cls-2"
       d="m 169.87,350.58 a 14,14 0 0 1 14,-14 h 27.55 a 11.92,11.92 0 0 1 11.92,11.92 v 0 a 11.91,11.91 0 0 1 -11.92,11.92 h -18.55"
       id="path56" />
    <path
       class="cls-2"
       d="m 206.59,360.42 a 12.89,12.89 0 0 1 12.89,12.89 v 8.37"
       id="path58" />
  </g>
  <g
     id="Text"
     transform="translate(-101.54,-223)">
    <path
       class="cls-3"
       d="M 694.41,529.2 V 529 a 1.6,1.6 0 0 1 1.75,-1.75 h 1.7 a 1.6,1.6 0 0 1 1.75,1.75 v 0.65 c 0,2.5 1.1,3.4 2.85,3.4 1.75,0 2.85,-0.9 2.85,-3.5 0,-2.9 -1.1,-4.75 -4.7,-7.9 -4.6,-4.05 -6.1,-6.9 -6.1,-10.9 0,-5.5 2.85,-8.7 8.2,-8.7 5.35,0 8,3.3 8,8.5 a 1.56,1.56 0 0 1 -1.75,1.75 h -1.7 a 1.56,1.56 0 0 1 -1.75,-1.75 v -0.05 c 0,-2.5 -1,-3.45 -2.75,-3.45 -1.75,0 -2.76,0.95 -2.76,3.3 0,2.35 1.15,4.4 4.75,7.55 4.6,4.05 6,6.85 6,11.2 0,5.7 -2.9,8.9 -8.3,8.9 -5.4,0 -8.04,-3.2 -8.04,-8.8 z"
       id="path61" />
    <path
       class="cls-3"
       d="m 718.61,529.4 v -18.8 c 0,-5.4 2.8,-8.6 8.1,-8.6 5.3,0 8.1,3.2 8.1,8.6 v 1.95 a 1.6,1.6 0 0 1 -1.75,1.75 h -1.7 a 1.6,1.6 0 0 1 -1.75,-1.75 v -2.3 c 0,-2.3 -1.1,-3.25 -2.75,-3.25 -1.65,0 -2.75,0.95 -2.75,3.25 v 19.55 c 0,2.3 1.1,3.2 2.75,3.2 1.65,0 2.75,-0.9 2.75,-3.2 v -3.6 a 1.6,1.6 0 0 1 1.75,-1.75 h 1.7 a 1.6,1.6 0 0 1 1.75,1.75 v 3.2 c 0,5.4 -2.8,8.6 -8.1,8.6 -5.3,0 -8.1,-3.2 -8.1,-8.6 z"
       id="path63" />
    <path
       class="cls-3"
       d="m 743.11,535.75 v -31.5 a 1.6,1.6 0 0 1 1.75,-1.75 h 2 a 1.6,1.6 0 0 1 1.75,1.75 v 31.5 a 1.6,1.6 0 0 1 -1.75,1.75 h -2 a 1.6,1.6 0 0 1 -1.75,-1.75 z"
       id="path65" />
    <path
       class="cls-3"
       d="M 756.76,529.2 V 529 a 1.6,1.6 0 0 1 1.75,-1.75 h 1.7 A 1.6,1.6 0 0 1 762,529 v 0.65 c 0,2.5 1.1,3.4 2.85,3.4 1.75,0 2.85,-0.9 2.85,-3.5 0,-2.9 -1.1,-4.75 -4.7,-7.9 -4.61,-4.05 -6.11,-6.9 -6.11,-10.9 0,-5.5 2.86,-8.7 8.21,-8.7 5.35,0 8,3.3 8,8.5 a 1.56,1.56 0 0 1 -1.75,1.75 h -1.7 a 1.56,1.56 0 0 1 -1.75,-1.75 v -0.05 c 0,-2.5 -1,-3.45 -2.75,-3.45 -1.75,0 -2.76,0.95 -2.76,3.35 0,2.4 1.16,4.4 4.76,7.55 4.6,4.05 6,6.85 6,11.2 0,5.7 -2.9,8.9 -8.3,8.9 -5.4,0 -8.09,-3.25 -8.09,-8.85 z"
       id="path67" />
    <path
       class="cls-3"
       d="M 780.35,529.2 V 529 a 1.6,1.6 0 0 1 1.75,-1.75 h 1.71 a 1.61,1.61 0 0 1 1.75,1.75 v 0.65 c 0,2.5 1.09,3.4 2.84,3.4 1.75,0 2.86,-0.9 2.86,-3.5 0,-2.9 -1.1,-4.75 -4.7,-7.9 -4.61,-4.05 -6.11,-6.9 -6.11,-10.9 0,-5.5 2.86,-8.7 8.2,-8.7 5.34,0 8,3.3 8,8.5 a 1.56,1.56 0 0 1 -1.75,1.75 h -1.7 a 1.56,1.56 0 0 1 -1.75,-1.75 v -0.05 c 0,-2.5 -1,-3.45 -2.75,-3.45 -1.75,0 -2.7,0.95 -2.7,3.3 0,2.35 1.15,4.4 4.76,7.55 4.6,4.05 6,6.85 6,11.2 0,5.7 -2.9,8.9 -8.3,8.9 -5.4,0 -8.11,-3.2 -8.11,-8.8 z"
       id="path69" />
    <path
       class="cls-3"
       d="m 804.5,529.2 v -18.4 c 0,-5.6 3,-8.8 8.35,-8.8 5.35,0 8.36,3.2 8.36,8.8 v 18.4 c 0,5.6 -3,8.8 -8.36,8.8 -5.36,0 -8.35,-3.2 -8.35,-8.8 z m 11.21,0.35 v -19.1 c 0,-2.5 -1.11,-3.45 -2.86,-3.45 -1.75,0 -2.85,1 -2.85,3.45 v 19.1 c 0,2.5 1.09,3.45 2.84,3.45 1.75,0 2.87,-0.95 2.87,-3.45 z"
       id="path71" />
    <path
       class="cls-3"
       d="m 829.9,535.75 v -31.5 a 1.6,1.6 0 0 1 1.75,-1.75 h 6.41 c 5.7,0 8.15,2.65 8.15,8.05 v 2.15 c 0,3.6 -1.15,5.9 -3.61,6.9 v 0.1 c 2.75,0.85 3.66,3.45 3.66,7.4 v 6.15 a 12.17,12.17 0 0 0 0.14,2.35 2.85,2.85 0 0 1 0.11,0.65 c 0,0.8 -0.55,1.25 -1.5,1.25 h -2.2 a 1.68,1.68 0 0 1 -1.91,-1.5 18.89,18.89 0 0 1 -0.15,-2.8 v -6.4 c 0,-3.25 -0.94,-4.3 -3.44,-4.3 h -1.91 v 13.25 a 1.6,1.6 0 0 1 -1.75,1.75 h -2 a 1.6,1.6 0 0 1 -1.75,-1.75 z m 7.5,-18.25 c 2.05,0 3.3,-0.9 3.3,-3.7 v -2.7 c 0,-2.5 -0.85,-3.6 -2.8,-3.6 h -2.5 v 10 z"
       id="path73" />
    <path
       class="cls-3"
       d="M 854.1,529.2 V 529 a 1.6,1.6 0 0 1 1.75,-1.75 h 1.7 a 1.61,1.61 0 0 1 1.76,1.75 v 0.65 c 0,2.5 1.09,3.4 2.84,3.4 1.75,0 2.86,-0.9 2.86,-3.5 0,-2.9 -1.11,-4.75 -4.7,-7.9 -4.61,-4.05 -6.11,-6.9 -6.11,-10.9 0,-5.5 2.85,-8.7 8.2,-8.7 5.35,0 8,3.3 8,8.5 a 1.56,1.56 0 0 1 -1.75,1.75 H 867 a 1.56,1.56 0 0 1 -1.75,-1.75 v -0.05 c 0,-2.5 -1,-3.45 -2.76,-3.45 -1.76,0 -2.75,0.95 -2.75,3.35 0,2.4 1.15,4.4 4.76,7.55 4.6,4.05 6,6.85 6,11.2 0,5.7 -2.91,8.9 -8.31,8.9 -5.4,0 -8.09,-3.25 -8.09,-8.85 z"
       id="path75" />
    <path
       class="cls-3"
       d="m 444.18,535.75 v -31.5 a 1.6,1.6 0 0 1 1.75,-1.75 h 6.35 c 5.5,0 8.2,3.05 8.2,8.65 v 3.45 c 0,5.6 -2.7,8.65 -8.2,8.65 h -2.6 v 12.5 a 1.6,1.6 0 0 1 -1.75,1.75 h -2 a 1.6,1.6 0 0 1 -1.75,-1.75 z m 8.1,-17.5 c 1.75,0 2.7,-0.8 2.7,-3.3 v -4.15 c 0,-2.5 -1,-3.3 -2.7,-3.3 h -2.6 v 10.75 z"
       id="path77" />
    <path
       class="cls-3"
       d="m 465.43,536 a 2.2,2.2 0 0 1 0.05,-0.45 l 5.25,-31.45 a 1.7,1.7 0 0 1 1.85,-1.6 h 4.25 a 1.7,1.7 0 0 1 1.85,1.6 l 5.25,31.45 a 2.2,2.2 0 0 1 0.05,0.45 c 0,1 -0.6,1.5 -1.65,1.5 h -1.95 a 1.71,1.71 0 0 1 -1.9,-1.6 l -0.75,-5.35 v 0.1 h -6.45 l -0.75,5.25 a 1.71,1.71 0 0 1 -1.9,1.6 h -1.55 c -1.08,0 -1.65,-0.5 -1.65,-1.5 z m 11.65,-10.1 -2.55,-17.3 h -0.1 l -2.5,17.3 z"
       id="path79" />
    <path
       class="cls-3"
       d="m 491.77,535.75 v -31.5 a 1.6,1.6 0 0 1 1.75,-1.75 h 6.36 c 5.5,0 8.2,3.05 8.2,8.65 v 3.45 c 0,5.6 -2.7,8.65 -8.2,8.65 h -2.61 v 12.5 a 1.6,1.6 0 0 1 -1.75,1.75 h -2 a 1.6,1.6 0 0 1 -1.75,-1.75 z m 8.11,-17.5 c 1.75,0 2.7,-0.8 2.7,-3.3 v -4.15 c 0,-2.5 -0.95,-3.3 -2.7,-3.3 h -2.61 v 10.75 z"
       id="path81" />
    <path
       class="cls-3"
       d="m 516.07,535.75 v -31.5 a 1.6,1.6 0 0 1 1.75,-1.75 h 11.5 a 1.61,1.61 0 0 1 1.76,1.75 v 1.5 a 1.61,1.61 0 0 1 -1.76,1.75 h -7.75 v 9.25 h 5.8 a 1.6,1.6 0 0 1 1.75,1.75 v 1.5 a 1.6,1.6 0 0 1 -1.75,1.75 h -5.8 v 10.75 h 7.75 a 1.61,1.61 0 0 1 1.76,1.75 v 1.5 a 1.61,1.61 0 0 1 -1.76,1.75 h -11.5 a 1.6,1.6 0 0 1 -1.75,-1.75 z"
       id="path83" />
    <path
       class="cls-3"
       d="m 539.22,535.75 v -31.5 A 1.6,1.6 0 0 1 541,502.5 h 6.4 c 5.7,0 8.15,2.65 8.15,8.05 v 2.15 c 0,3.6 -1.15,5.9 -3.6,6.9 v 0.1 c 2.75,0.85 3.65,3.45 3.65,7.4 v 6.15 a 11.37,11.37 0 0 0 0.15,2.35 3.44,3.44 0 0 1 0.1,0.65 c 0,0.8 -0.55,1.25 -1.5,1.25 h -2.2 a 1.67,1.67 0 0 1 -1.9,-1.5 17.57,17.57 0 0 1 -0.15,-2.8 v -6.4 c 0,-3.25 -1,-4.3 -3.45,-4.3 h -1.9 v 13.25 A 1.6,1.6 0 0 1 543,537.5 h -2 a 1.6,1.6 0 0 1 -1.78,-1.75 z m 7.5,-18.25 c 2,0 3.3,-0.9 3.3,-3.7 v -2.7 c 0,-2.5 -0.85,-3.6 -2.8,-3.6 h -2.5 v 10 z"
       id="path85" />
    <path
       class="cls-3"
       d="m 171.54,535.75 v -31.5 a 1.6,1.6 0 0 1 1.75,-1.75 h 6.4 c 5.7,0 8.15,2.65 8.15,8.05 v 2.15 c 0,3.6 -1.15,5.9 -3.6,6.9 v 0.1 c 2.75,0.85 3.65,3.45 3.65,7.4 v 6.15 a 11.37,11.37 0 0 0 0.15,2.35 3.44,3.44 0 0 1 0.1,0.65 c 0,0.8 -0.55,1.25 -1.5,1.25 h -2.2 a 1.67,1.67 0 0 1 -1.9,-1.5 17.57,17.57 0 0 1 -0.15,-2.8 v -6.4 c 0,-3.25 -0.95,-4.3 -3.45,-4.3 H 177 v 13.25 a 1.6,1.6 0 0 1 -1.75,1.75 h -2 a 1.6,1.6 0 0 1 -1.71,-1.75 z M 179,517.5 c 2.05,0 3.3,-0.9 3.3,-3.7 v -2.7 c 0,-2.5 -0.85,-3.6 -2.8,-3.6 H 177 v 10 z"
       id="path87" />
    <path
       class="cls-3"
       d="m 196.29,529.2 v -18.4 c 0,-5.6 3,-8.8 8.35,-8.8 5.35,0 8.35,3.2 8.35,8.8 v 18.4 c 0,5.6 -3,8.8 -8.35,8.8 -5.35,0 -8.35,-3.2 -8.35,-8.8 z m 11.2,0.35 v -19.1 c 0,-2.5 -1.1,-3.45 -2.85,-3.45 -1.75,0 -2.85,0.95 -2.85,3.45 v 19.1 c 0,2.5 1.1,3.45 2.85,3.45 1.75,0 2.85,-0.95 2.85,-3.45 z"
       id="path89" />
    <path
       class="cls-3"
       d="m 221.34,529.4 v -18.8 c 0,-5.4 2.8,-8.6 8.1,-8.6 5.3,0 8.1,3.2 8.1,8.6 v 1.95 a 1.6,1.6 0 0 1 -1.75,1.75 h -1.7 a 1.6,1.6 0 0 1 -1.75,-1.75 v -2.3 c 0,-2.3 -1.1,-3.25 -2.75,-3.25 -1.65,0 -2.75,0.95 -2.75,3.25 v 19.55 c 0,2.3 1.1,3.2 2.75,3.2 1.65,0 2.75,-0.9 2.75,-3.2 v -3.6 a 1.6,1.6 0 0 1 1.75,-1.75 h 1.7 a 1.6,1.6 0 0 1 1.75,1.75 v 3.2 c 0,5.4 -2.8,8.6 -8.1,8.6 -5.3,0 -8.1,-3.2 -8.1,-8.6 z"
       id="path91" />
    <path
       class="cls-3"
       d="m 245.84,535.75 v -31.5 a 1.6,1.6 0 0 1 1.75,-1.75 h 2 a 1.6,1.6 0 0 1 1.75,1.75 v 13 l 6.55,-13.45 a 2.1,2.1 0 0 1 2.05,-1.3 h 1.7 c 1,0 1.55,0.45 1.55,1.15 a 1.89,1.89 0 0 1 -0.25,0.9 l -5.65,10.8 6.15,20 a 2.77,2.77 0 0 1 0.15,0.85 c 0,0.85 -0.55,1.3 -1.55,1.3 h -2.15 a 2,2 0 0 1 -2,-1.45 l -4.35,-14.15 -2.2,4.45 v 9.4 a 1.6,1.6 0 0 1 -1.75,1.75 h -2 a 1.6,1.6 0 0 1 -1.75,-1.75 z"
       id="path93" />
  </g>
  <metadata
     id="metadata122">
    <rdf:RDF>
      <cc:Work
         rdf:about="">
        <dc:title>rock-paper-scissors-line-icons</dc:title>
      </cc:Work>
    </rdf:RDF>
  </metadata>
</svg>
