<?xml version="1.0" encoding="UTF-8" standalone="no"?>
<!-- Created with Inkscape (http://www.inkscape.org/) -->

<svg
   width="61.383331mm"
   height="61.383331mm"
   viewBox="0 0 61.383331 61.383331"
   version="1.1"
   id="svg344"
   inkscape:version="1.1.1 (3bf5ae0d25, 2021-09-20)"
   sodipodi:docname="Paper.svg"
   xmlns:inkscape="http://www.inkscape.org/namespaces/inkscape"
   xmlns:sodipodi="http://sodipodi.sourceforge.net/DTD/sodipodi-0.dtd"
   xmlns="http://www.w3.org/2000/svg"
   xmlns:svg="http://www.w3.org/2000/svg">
  <sodipodi:namedview
     id="namedview346"
     pagecolor="#505050"
     bordercolor="#eeeeee"
     borderopacity="1"
     inkscape:pageshadow="0"
     inkscape:pageopacity="0"
     inkscape:pagecheckerboard="0"
     inkscape:document-units="mm"
     showgrid="false"
     fit-margin-top="0"
     fit-margin-left="0"
     fit-margin-right="0"
     fit-margin-bottom="0"
     inkscape:zoom="0.97764853"
     inkscape:cx="-145.24647"
     inkscape:cy="303.27872"
     inkscape:window-width="1920"
     inkscape:window-height="1016"
     inkscape:window-x="0"
     inkscape:window-y="0"
     inkscape:window-maximized="1"
     inkscape:current-layer="layer1" />
  <defs
     id="defs341" />
  <g
     inkscape:label="Layer 1"
     inkscape:groupmode="layer"
     id="layer1"
     transform="translate(-74.04306,-48.87425)">
    <path
       id="rect32"
       class="cls-2"
       style="fill:none;stroke:#262626;stroke-width:1.85208px;stroke-linecap:round;stroke-linejoin:round"
       d="m 80.260767,49.80029 h 48.947913 c 2.93159,0 5.29167,2.360084 5.29167,5.291667 v 48.947913 c 0,2.93159 -2.36008,5.29167 -5.29167,5.29167 H 80.260767 c -2.931583,0 -5.291667,-2.36008 -5.291667,-5.29167 V 55.091957 c 0,-2.931583 2.360084,-5.291667 5.291667,-5.291667 z" />
    <path
       class="cls-2"
       d="M 99.342517,61.309665 H 96.01935 a 3.3152291,3.3152291 0 0 0 -3.317875,3.317875 v 28.215166"
       id="path34"
       style="fill:none;stroke:#262626;stroke-width:1.85208px;stroke-linecap:round;stroke-linejoin:round" />
    <path
       class="cls-2"
       d="m 99.342517,61.309665 h 18.256253 a 3.317875,3.317875 0 0 1 3.31787,3.317875 v 1.775354 h -6.64104"
       id="path38"
       style="fill:none;stroke:#262626;stroke-width:1.85208px;stroke-linecap:round;stroke-linejoin:round" />
    <path
       class="cls-2"
       d="m 117.59877,61.309665 a 3.3205208,3.3205208 0 0 0 -3.32317,3.317875 v 1.661583"
       id="path40"
       style="fill:none;stroke:#262626;stroke-width:1.85208px;stroke-linecap:round;stroke-linejoin:round" />
    <path
       class="cls-2"
       d="M 110.95772,97.822165 A 3.3152291,3.3152291 0 0 1 107.64514,94.50429 V 92.842706 H 89.388892 A 0.83343749,0.83343749 0 0 0 88.5581,93.673498 v 0.830792 a 3.3152291,3.3152291 0 0 0 3.312583,3.317875 H 110.95772 A 3.3152291,3.3152291 0 0 0 114.2756,94.50429 V 67.950707"
       id="path42"
       style="fill:none;stroke:#262626;stroke-width:1.85208px;stroke-linecap:round;stroke-linejoin:round" />
  </g>
</svg>
