<?xml version="1.0" encoding="UTF-8" standalone="no"?>
<!-- Created with Inkscape (http://www.inkscape.org/) -->

<svg
   width="120.38541mm"
   height="120.38541mm"
   viewBox="0 0 120.38542 120.38542"
   version="1.1"
   id="svg118"
   inkscape:version="1.1 (c68e22c387, 2021-05-23)"
   sodipodi:docname="Paper.svg"
   xmlns:inkscape="http://www.inkscape.org/namespaces/inkscape"
   xmlns:sodipodi="http://sodipodi.sourceforge.net/DTD/sodipodi-0.dtd"
   xmlns="http://www.w3.org/2000/svg"
   xmlns:svg="http://www.w3.org/2000/svg">
  <sodipodi:namedview
     id="namedview120"
     pagecolor="#ffffff"
     bordercolor="#666666"
     borderopacity="1.0"
     inkscape:pageshadow="2"
     inkscape:pageopacity="0.0"
     inkscape:pagecheckerboard="0"
     inkscape:document-units="mm"
     showgrid="false"
     fit-margin-top="0"
     fit-margin-left="0"
     fit-margin-right="0"
     fit-margin-bottom="0"
     inkscape:zoom="0.63785073"
     inkscape:cx="-408.40276"
     inkscape:cy="116.0146"
     inkscape:window-width="1920"
     inkscape:window-height="1020"
     inkscape:window-x="0"
     inkscape:window-y="0"
     inkscape:window-maximized="1"
     inkscape:current-layer="layer1" />
  <defs
     id="defs115" />
  <g
     inkscape:label="Layer 1"
     inkscape:groupmode="layer"
     id="layer1"
     transform="translate(-60.930195,-117.7584)">
    <circle
       class="cls-4"
       cx="121.1229"
       cy="177.95111"
       r="60.192707"
       id="circle32"
       style="fill:#ffffff;stroke-width:0.264583" />
    <circle
       class="cls-7"
       cx="121.1229"
       cy="177.89555"
       id="circle34"
       r="55.033333"
       style="fill:#00e1d4;stroke:#231f20;stroke-width:2.46856px;stroke-miterlimit:10" />
    <path
       class="cls-4"
       d="m 142.7473,182.08126 -3.70417,3.47927 V 155.6388 c 0,-2.57175 -1.91558,-4.953 -4.70164,-4.953 a 4.6989999,4.6989999 0 0 0 -4.68577,4.70165 v -4.24657 c 0,-2.70139 -2.00819,-5.29166 -5.02709,-5.29166 a 5.0112083,5.0112083 0 0 0 -5.02708,5.02708 v -0.29898 a 4.6302083,4.6302083 0 0 0 -4.69106,-4.7281 4.6989999,4.6989999 0 0 0 -4.70165,4.70164 v 7.9375 a 4.1222083,4.1222083 0 0 0 -4.12221,-4.11956 c -2.4712,0 -4.11956,2.02406 -4.11956,4.28625 v 33.8164 c 0,9.63612 7.76288,17.57891 17.40429,17.57891 a 27.326166,27.326166 0 0 0 20.28296,-9.017 l 14.02292,-15.21883 a 2.5823333,2.5823333 0 0 0 -0.0767,-3.58246 v 0 a 7.8131457,7.8131457 0 0 0 -10.85321,-0.15081 z"
       id="path36"
       style="fill:#ffffff;stroke-width:0.264583" />
    <line
       class="cls-6"
       x1="109.68497"
       y1="158.48308"
       x2="109.68497"
       y2="174.61208"
       id="line38"
       style="fill:none;stroke:#231f20;stroke-width:2.46856px;stroke-linecap:round;stroke-linejoin:round" />
    <line
       class="cls-6"
       x1="119.08826"
       y1="150.86836"
       x2="119.08826"
       y2="174.61208"
       id="line40"
       style="fill:none;stroke:#231f20;stroke-width:2.46856px;stroke-linecap:round;stroke-linejoin:round" />
    <line
       class="cls-6"
       x1="129.11861"
       y1="155.38744"
       x2="129.11861"
       y2="174.61208"
       id="line42"
       style="fill:none;stroke:#231f20;stroke-width:2.46856px;stroke-linecap:round;stroke-linejoin:round" />
    <path
       class="cls-6"
       d="m 138.52455,185.56053 h -9.525 a 11.273896,11.273896 0 0 0 -8.55662,3.92112"
       id="path44"
       style="fill:none;stroke:#231f20;stroke-width:2.46856px;stroke-linecap:round;stroke-linejoin:round" />
    <path
       class="cls-6"
       d="m 142.22607,182.08126 -3.70417,3.47927 V 155.6388 c 0,-2.57175 -1.91558,-4.953 -4.70429,-4.953 a 4.7016458,4.7016458 0 0 0 -4.69106,4.70165 v -4.24657 c 0,-2.70139 -2.00554,-5.29166 -5.02708,-5.29166 a 5.0270833,5.0270833 0 0 0 -5.02709,5.02708 v -0.29898 a 4.6275624,4.6275624 0 0 0 -4.68577,-4.7281 4.7016458,4.7016458 0 0 0 -4.70164,4.70164 v 7.9375 a 4.1195624,4.1195624 0 0 0 -4.10634,-4.12485 c -2.4712,0 -4.11956,2.02406 -4.11956,4.28625 v 33.82169 c 0,9.63612 7.76288,17.57891 17.40429,17.57891 9.41917,0 15.10242,-3.27819 20.28296,-9.017 l 14.02292,-15.21883 a 2.5796875,2.5796875 0 0 0 -0.0794,-3.58246 v 0 a 7.8078541,7.8078541 0 0 0 -10.86379,-0.15081 z"
       id="path46"
       style="fill:none;stroke:#231f20;stroke-width:2.46856px;stroke-linecap:round;stroke-linejoin:round" />
  </g>
</svg>
