<?xml version="1.0" encoding="UTF-8" standalone="no"?>
<!-- Created with Inkscape (http://www.inkscape.org/) -->

<svg
   width="120.38541mm"
   height="120.38541mm"
   viewBox="0 0 120.38541 120.38541"
   version="1.1"
   id="svg292"
   inkscape:version="1.1 (c68e22c387, 2021-05-23)"
   sodipodi:docname="Scissors.svg"
   xmlns:inkscape="http://www.inkscape.org/namespaces/inkscape"
   xmlns:sodipodi="http://sodipodi.sourceforge.net/DTD/sodipodi-0.dtd"
   xmlns="http://www.w3.org/2000/svg"
   xmlns:svg="http://www.w3.org/2000/svg">
  <sodipodi:namedview
     id="namedview294"
     pagecolor="#ffffff"
     bordercolor="#666666"
     borderopacity="1.0"
     inkscape:pageshadow="2"
     inkscape:pageopacity="0.0"
     inkscape:pagecheckerboard="0"
     inkscape:document-units="mm"
     showgrid="false"
     fit-margin-top="0"
     fit-margin-left="0"
     fit-margin-right="0"
     fit-margin-bottom="0"
     inkscape:zoom="0.63785073"
     inkscape:cx="-493.06207"
     inkscape:cy="-12.542119"
     inkscape:window-width="1920"
     inkscape:window-height="1020"
     inkscape:window-x="0"
     inkscape:window-y="0"
     inkscape:window-maximized="1"
     inkscape:current-layer="layer1" />
  <defs
     id="defs289" />
  <g
     inkscape:label="Layer 1"
     inkscape:groupmode="layer"
     id="layer1"
     transform="translate(-83.329632,-151.77238)">
    <circle
       class="cls-4"
       cx="143.52234"
       cy="211.96509"
       r="60.192707"
       id="circle50"
       style="fill:#ffffff;stroke-width:0.264583" />
    <circle
       class="cls-8"
       cx="143.52234"
       cy="211.96509"
       r="55.033333"
       id="circle52"
       style="fill:#f1baf5;stroke:#231f20;stroke-width:2.46856px;stroke-miterlimit:10" />
    <path
       class="cls-4"
       d="m 162.15165,175.32823 a 5.2149374,5.2149374 0 0 0 -5.89227,4.44235 l -4.15925,28.53267 -4.14602,-28.44007 a 5.2175833,5.2175833 0 0 0 -10.31875,1.44198 l 3.02155,21.57677 a 5.5562499,5.5562499 0 0 0 -9.15988,4.20952 v 5.00857 a 5.5562499,5.5562499 0 0 0 -11.09662,0 v 15.04421 c 0,11.08339 8.36347,20.7592 19.42306,21.47358 11.39296,0.73819 22.1906,-7.86077 22.1906,-21.34658 0,-17.80911 0,-11.85863 4.57729,-46.0375 a 5.2149374,5.2149374 0 0 0 -4.43971,-5.9055 z"
       id="path54"
       style="fill:#ffffff;stroke-width:0.264583" />
    <path
       class="cls-6"
       d="m 147.92501,227.26329 v 0 a 9.2604166,9.2604166 0 0 0 -9.26042,9.26041 v 2.74109"
       id="path56"
       style="fill:none;stroke:#231f20;stroke-width:2.46856px;stroke-linecap:round;stroke-linejoin:round" />
    <path
       class="cls-6"
       d="m 162.15165,175.32823 a 5.2149374,5.2149374 0 0 0 -5.89227,4.44235 l -4.15925,28.53267 -4.14602,-28.44007 a 5.2175833,5.2175833 0 0 0 -10.31875,1.44198 l 3.02155,21.57677 a 5.5562499,5.5562499 0 0 0 -9.15988,4.20952 v 5.00857 a 5.5562499,5.5562499 0 0 0 -11.09662,0 v 15.04421 c 0,11.08339 8.36347,20.7592 19.42306,21.47358 11.39296,0.73819 22.1906,-7.86077 22.1906,-21.34658 0,-17.80911 0,-11.85863 4.57729,-46.0375 a 5.2149374,5.2149374 0 0 0 -4.43971,-5.9055 z"
       id="path58"
       style="fill:none;stroke:#231f20;stroke-width:2.46856px;stroke-linecap:round;stroke-linejoin:round" />
    <path
       class="cls-6"
       d="m 125.94872,206.54377 v 0 a 5.5562499,5.5562499 0 0 0 -5.55625,5.55625 v 6.77598 a 5.5562499,5.5562499 0 0 0 5.55625,5.55625 v 0 a 5.5562499,5.5562499 0 0 0 5.55625,-5.55625 v -6.78392 a 5.5562499,5.5562499 0 0 0 -5.55625,-5.54831 z"
       id="path64"
       style="fill:none;stroke:#231f20;stroke-width:2.46856px;stroke-linecap:round;stroke-linejoin:round" />
    <path
       class="cls-6"
       d="m 137.04534,201.5352 v 0 a 5.5562499,5.5562499 0 0 0 -5.55625,5.55625 V 218.876 a 5.5562499,5.5562499 0 0 0 5.55625,5.55625 v 0 a 5.5562499,5.5562499 0 0 0 5.55625,-5.55625 v -11.79248 a 5.5562499,5.5562499 0 0 0 -5.55625,-5.54832 z"
       id="path66"
       style="fill:none;stroke:#231f20;stroke-width:2.46856px;stroke-linecap:round;stroke-linejoin:round" />
    <path
       class="cls-6"
       d="m 162.01407,227.26329 v 0 a 10.82675,10.82675 0 0 0 -10.82675,-10.82675 h -16.85925 a 2.8680833,2.8680833 0 0 0 -2.87073,2.86808 v 0 a 7.9586666,7.9586666 0 0 0 7.95867,7.95867 h 8.509"
       id="path70"
       style="fill:none;stroke:#231f20;stroke-width:2.46856px;stroke-linecap:round;stroke-linejoin:round" />
  </g>
</svg>
